<svg width="23" height="23" viewBox="0 0 23 23"  xmlns="http://www.w3.org/2000/svg">
<g clip-path="url(#clip0_98_5329)">
<path d="M22.0422 6.03163C21.9176 5.58726 21.675 5.18495 21.34 4.86747C20.9956 4.54022 20.5735 4.30613 20.1135 4.1873C18.392 3.73355 11.4951 3.73355 11.4951 3.73355C8.61978 3.70084 5.7452 3.84472 2.88756 4.16438C2.42757 4.29199 2.00625 4.53131 1.66106 4.86105C1.3219 5.18738 1.07623 5.5898 0.947899 6.03071C0.639618 7.69148 0.489833 9.37778 0.500566 11.0669C0.489566 12.7545 0.638982 14.4402 0.947899 16.103C1.07348 16.5421 1.31823 16.9427 1.65831 17.2663C1.9984 17.5899 2.4219 17.8236 2.88756 17.9474C4.63198 18.4002 11.4951 18.4002 11.4951 18.4002C14.374 18.433 17.2522 18.2891 20.1135 17.9694C20.5735 17.8505 20.9956 17.6165 21.34 17.2892C21.6792 16.9656 21.9203 16.5632 22.0413 16.125C22.3576 14.4649 22.5114 12.7779 22.5005 11.088C22.5243 9.39085 22.3707 7.6959 22.0422 6.03071V6.03163ZM9.30239 14.2055V7.92913L15.0407 11.0678L9.30239 14.2055Z" />
</g>
<defs>
<clipPath id="clip0_98_5329">
<rect width="22" height="22" fill="white" transform="translate(0.5 0.065918)"/>
</clipPath>
</defs>
</svg>
