<svg width="22" height="21" viewBox="0 0 24 23" fill="none" xmlns="http://www.w3.org/2000/svg">
<path d="M4.8291 5.66655H20.9174C21.2434 5.66656 21.5658 5.73488 21.8638 5.86711C22.1617 5.99933 22.4287 6.19252 22.6474 6.43423C22.8662 6.67594 23.0318 6.9608 23.1337 7.27046C23.2356 7.58011 23.2715 7.90768 23.2391 8.23205L22.5391 15.2321C22.4815 15.8078 22.2121 16.3416 21.7831 16.7299C21.354 17.1182 20.7961 17.3332 20.2174 17.3332H9.07577C8.53615 17.3334 8.01314 17.1466 7.59579 16.8046C7.17843 16.4625 6.89253 15.9864 6.78677 15.4572L4.8291 5.66655Z"  stroke-width="1.5" stroke-linejoin="round"/>
<path d="M17.6615 22H19.9948M4.82812 5.66667L3.88312 1.88317C3.81992 1.63088 3.67424 1.40694 3.4692 1.24693C3.26417 1.08692 3.01154 1.00001 2.75146 1H1.32812L4.82812 5.66667ZM8.32812 22H10.6615H8.32812Z"  stroke-width="1.5" stroke-linecap="round" stroke-linejoin="round"/>
</svg>
