<svg width="19" height="18" viewBox="0 0 19 18"  xmlns="http://www.w3.org/2000/svg">
<path d="M9.49986 6.2021C7.92291 6.2021 6.63599 7.48902 6.63599 9.06597C6.63599 10.6429 7.92291 11.9298 9.49986 11.9298C11.0768 11.9298 12.3637 10.6429 12.3637 9.06597C12.3637 7.48902 11.0768 6.2021 9.49986 6.2021ZM18.0893 9.06597C18.0893 7.88003 18.1001 6.70484 18.0335 5.52105C17.9669 4.14605 17.6532 2.92574 16.6477 1.92027C15.6401 0.91265 14.4219 0.601127 13.0469 0.534526C11.861 0.467924 10.6858 0.478666 9.50201 0.478666C8.31607 0.478666 7.14088 0.467924 5.95709 0.534526C4.58209 0.601127 3.36177 0.914799 2.3563 1.92027C1.34869 2.92788 1.03716 4.14605 0.970561 5.52105C0.903959 6.70699 0.914702 7.88218 0.914702 9.06597C0.914702 10.2498 0.903959 11.4271 0.970561 12.6109C1.03716 13.9859 1.35083 15.2062 2.3563 16.2117C3.36392 17.2193 4.58209 17.5308 5.95709 17.5974C7.14303 17.664 8.31822 17.6533 9.50201 17.6533C10.688 17.6533 11.8631 17.664 13.0469 17.5974C14.4219 17.5308 15.6423 17.2171 16.6477 16.2117C17.6553 15.2041 17.9669 13.9859 18.0335 12.6109C18.1022 11.4271 18.0893 10.2519 18.0893 9.06597ZM9.49986 13.4724C7.06139 13.4724 5.09342 11.5044 5.09342 9.06597C5.09342 6.62749 7.06139 4.65952 9.49986 4.65952C11.9383 4.65952 13.9063 6.62749 13.9063 9.06597C13.9063 11.5044 11.9383 13.4724 9.49986 13.4724ZM14.0868 5.50816C13.5174 5.50816 13.0577 5.04839 13.0577 4.47906C13.0577 3.90972 13.5174 3.44995 14.0868 3.44995C14.6561 3.44995 15.1159 3.90972 15.1159 4.47906C15.1161 4.61425 15.0896 4.74814 15.0379 4.87308C14.9862 4.99801 14.9104 5.11152 14.8148 5.20712C14.7193 5.30271 14.6057 5.37851 14.4808 5.43017C14.3559 5.48182 14.222 5.50833 14.0868 5.50816Z" />
</svg>
