<svg width="24" height="23" viewBox="0 0 24 23" fill="none" xmlns="http://www.w3.org/2000/svg">
<g clip-path="url(#clip0_46_5982)">
<path d="M17.9886 12.8513C17.2354 14.3779 16.2148 15.8988 15.1711 17.2644C14.1811 18.5519 13.1225 19.7851 12 20.9588C10.8774 19.7851 9.81886 18.5519 8.82888 17.2644C7.78525 15.8988 6.76463 14.3779 6.01138 12.8513C5.2495 11.3088 4.8125 9.86416 4.8125 8.62503C4.8125 6.71879 5.56975 4.89062 6.91767 3.5427C8.26559 2.19478 10.0938 1.43753 12 1.43753C13.9062 1.43753 15.7344 2.19478 17.0823 3.5427C18.4302 4.89062 19.1875 6.71879 19.1875 8.62503C19.1875 9.86416 18.7491 11.3088 17.9886 12.8513ZM12 23C12 23 20.625 14.8264 20.625 8.62503C20.625 6.33754 19.7163 4.14374 18.0988 2.52623C16.4813 0.908733 14.2875 3.05176e-05 12 3.05176e-05C9.71251 3.05176e-05 7.51871 0.908733 5.9012 2.52623C4.2837 4.14374 3.375 6.33754 3.375 8.62503C3.375 14.8264 12 23 12 23Z" fill="#EA2230"/>
<path d="M12 11.5C11.2375 11.5 10.5062 11.1971 9.96707 10.658C9.4279 10.1188 9.125 9.38753 9.125 8.62503C9.125 7.86253 9.4279 7.13127 9.96707 6.5921C10.5062 6.05293 11.2375 5.75003 12 5.75003C12.7625 5.75003 13.4938 6.05293 14.0329 6.5921C14.5721 7.13127 14.875 7.86253 14.875 8.62503C14.875 9.38753 14.5721 10.1188 14.0329 10.658C13.4938 11.1971 12.7625 11.5 12 11.5ZM12 12.9375C13.1437 12.9375 14.2406 12.4832 15.0494 11.6744C15.8581 10.8657 16.3125 9.76878 16.3125 8.62503C16.3125 7.48128 15.8581 6.38438 15.0494 5.57563C14.2406 4.76688 13.1437 4.31253 12 4.31253C10.8563 4.31253 9.75935 4.76688 8.9506 5.57563C8.14185 6.38438 7.6875 7.48128 7.6875 8.62503C7.6875 9.76878 8.14185 10.8657 8.9506 11.6744C9.75935 12.4832 10.8563 12.9375 12 12.9375V12.9375Z" fill="#EA2230"/>
</g>
<defs>
<clipPath id="clip0_46_5982">
<rect width="23" height="23" fill="white" transform="translate(0.5 3.05176e-05)"/>
</clipPath>
</defs>
</svg>
