<?xml version="1.0" width="15" height="17" encoding="utf-8"?>
<!-- Svg Vector Icons : http://www.onlinewebfonts.com/icon -->
<!DOCTYPE svg PUBLIC "-//W3C//DTD SVG 1.1//EN" "http://www.w3.org/Graphics/SVG/1.1/DTD/svg11.dtd">
<svg version="1.1" xmlns="http://www.w3.org/2000/svg" xmlns:xlink="http://www.w3.org/1999/xlink" width="15" height="17" x="0px" y="0px" viewBox="0 0 1000 1000" enable-background="new 0 0 1000 1000" xml:space="preserve">
<metadata> Svg Vector Icons : http://www.onlinewebfonts.com/icon </metadata>
<g><path d="M500,10C229.4,10,10,229.4,10,500c0,270.6,219.4,490,490,490c270.6,0,490-219.4,490-490C990,229.4,770.6,10,500,10z M754.5,354.6L603.1,506.2l149.6,149.7l-0.1,0.1c13.1,13.3,21.2,31.5,21.2,51.6c0,40.6-32.9,73.4-73.4,73.4c-21.6,0-40.9-9.3-54.4-24.1L499.3,610.1L352.6,757c-13.4,14.8-32.8,24.1-54.4,24.1c-40.6,0-73.4-32.9-73.4-73.4c0-20.1,8.1-38.3,21.2-51.6l-0.1-0.1l149.6-149.7L244,354.6l0,0c-12.6-13.2-20.3-31-20.3-50.7c0-40.6,32.9-73.4,73.4-73.4c19.7,0,37.6,7.8,50.7,20.4l0,0l1,1c0.1,0.1,0.2,0.2,0.2,0.2l150.1,150.2l150.1-150.2c0.1-0.1,0.1-0.1,0.2-0.2l1-1l0,0c13.2-12.6,31.1-20.4,50.7-20.4c40.6,0,73.4,32.9,73.4,73.4C774.8,323.6,767.1,341.4,754.5,354.6L754.5,354.6z"/></g>
</svg>