<svg width="25" height="25" viewBox="0 0 28 27" fill="none" xmlns="http://www.w3.org/2000/svg">
<g clip-path="url(#clip0_46_3554)">
<path fill-rule="evenodd" clip-rule="evenodd" d="M7.79568 20.732C12.4161 20.057 15.5973 20.115 20.2238 20.7556C20.5588 20.8041 20.865 20.9723 21.0857 21.229C21.3064 21.4857 21.4268 21.8136 21.4246 22.1522C21.4246 22.4762 21.3132 22.7907 21.1121 23.0364C20.7615 23.4648 20.4023 23.8861 20.0348 24.3H21.8175C21.9295 24.1664 22.0422 24.03 22.1563 23.8916C22.5567 23.4006 22.7751 22.7864 22.7746 22.1528C22.7746 20.786 21.777 19.6081 20.4087 19.4191C15.6729 18.7637 12.3627 18.7009 7.60061 19.3968C6.21821 19.5986 5.22461 20.7947 5.22461 22.1711C5.22461 22.7819 5.42373 23.3861 5.80106 23.8754C5.91243 24.0199 6.02246 24.1616 6.13181 24.3007H7.87128C7.52934 23.8913 7.19583 23.475 6.87093 23.0519C6.67786 22.7987 6.5737 22.4888 6.57461 22.1704C6.57461 21.4434 7.09706 20.8339 7.79568 20.732ZM13.9996 14.175C14.5315 14.175 15.0581 14.0702 15.5495 13.8667C16.0408 13.6632 16.4873 13.3649 16.8634 12.9888C17.2395 12.6127 17.5378 12.1662 17.7413 11.6749C17.9449 11.1835 18.0496 10.6569 18.0496 10.125C18.0496 9.59315 17.9449 9.06651 17.7413 8.57514C17.5378 8.08377 17.2395 7.6373 16.8634 7.26122C16.4873 6.88515 16.0408 6.58683 15.5495 6.38329C15.0581 6.17976 14.5315 6.07501 13.9996 6.07501C12.9255 6.07501 11.8953 6.5017 11.1358 7.26122C10.3763 8.02075 9.94961 9.05088 9.94961 10.125C9.94961 11.1991 10.3763 12.2293 11.1358 12.9888C11.8953 13.7483 12.9255 14.175 13.9996 14.175ZM13.9996 15.525C15.4318 15.525 16.8053 14.9561 17.818 13.9434C18.8307 12.9307 19.3996 11.5572 19.3996 10.125C19.3996 8.69284 18.8307 7.31933 17.818 6.30663C16.8053 5.29393 15.4318 4.72501 13.9996 4.72501C12.5674 4.72501 11.1939 5.29393 10.1812 6.30663C9.16854 7.31933 8.59961 8.69284 8.59961 10.125C8.59961 11.5572 9.16854 12.9307 10.1812 13.9434C11.1939 14.9561 12.5674 15.525 13.9996 15.525Z"/>
<path fill-rule="evenodd" clip-rule="evenodd" d="M14 25.65C20.7102 25.65 26.15 20.2102 26.15 13.5C26.15 6.78982 20.7102 1.35 14 1.35C7.28982 1.35 1.85 6.78982 1.85 13.5C1.85 20.2102 7.28982 25.65 14 25.65ZM14 27C21.4561 27 27.5 20.9561 27.5 13.5C27.5 6.04395 21.4561 0 14 0C6.54395 0 0.5 6.04395 0.5 13.5C0.5 20.9561 6.54395 27 14 27Z" />
</g>
<defs>
<clipPath id="clip0_46_3554">
<rect width="27" height="27" fill="white" transform="translate(0.5)"/>
</clipPath>
</defs>
</svg>
